<?xml version="1.0" encoding="utf-8"?>
<!-- Generator: Adobe Illustrator 18.1.1, SVG Export Plug-In . SVG Version: 6.00 Build 0)  -->
<!DOCTYPE svg PUBLIC "-//W3C//DTD SVG 1.1//EN" "http://www.w3.org/Graphics/SVG/1.1/DTD/svg11.dtd">
<svg version="1.1" id="Layer_1" xmlns="http://www.w3.org/2000/svg" xmlns:xlink="http://www.w3.org/1999/xlink" x="0px" y="0px"
	 viewBox="0 0 350 350" enable-background="new 0 0 350 350" xml:space="preserve">
<g>
	<g>
		<circle fill="#FFCD05" cx="175" cy="175" r="174"/>
	</g>
	<g>
		<g>
			<circle fill="#005194" cx="197.3" cy="171.5" r="4.2"/>
		</g>
		<g>
			<g>
				<g>
					<rect x="170.4" y="79" fill="#005194" width="9.2" height="60"/>
				</g>
				<g>
					<polygon fill="#005194" points="259.6,143.6 90.4,143.6 90.4,59 99.6,59 99.6,134.4 250.4,134.4 250.4,59 259.6,59 					"/>
				</g>
			</g>
			<g>
				<polygon fill="#005194" points="185.1,290.3 130.4,290.3 130.4,153.8 139.6,153.8 139.6,281.1 185.1,281.1 				"/>
			</g>
			<g>
				<path fill="#005194" d="M197.3,193.8c-12.3,0-22.3-10-22.3-22.3c0-12.3,10-22.3,22.3-22.3c12.3,0,22.3,10,22.3,22.3
					C219.6,183.8,209.6,193.8,197.3,193.8z M197.3,158.4c-7.2,0-13.1,5.9-13.1,13.1c0,7.2,5.9,13.1,13.1,13.1
					c7.2,0,13.1-5.9,13.1-13.1C210.4,164.3,204.5,158.4,197.3,158.4z"/>
			</g>
			<g>
				<rect x="210.4" y="171.5" fill="#005194" width="9.2" height="119.5"/>
			</g>
			<g>
				<rect x="147.2" y="166.9" fill="#005194" width="20.6" height="9.2"/>
			</g>
		</g>
	</g>
</g>
</svg>
